<svg width="20" height="20" viewBox="0 0 20 20" fill="none" xmlns="http://www.w3.org/2000/svg">
<rect width="20" height="20" fill="#F5F5F5"/>
<g id="Card 1">
<g id="Group 869">
<path id="Rectangle 58" d="M-23.5 -273C-23.5 -276.785 -23.4989 -279.574 -23.2116 -281.712C-22.9261 -283.835 -22.3665 -285.24 -21.3033 -286.303C-20.2401 -287.366 -18.8346 -287.926 -16.7116 -288.212C-14.5741 -288.499 -11.7854 -288.5 -8 -288.5H410C413.785 -288.5 416.574 -288.499 418.712 -288.212C420.835 -287.926 422.24 -287.366 423.303 -286.303C424.366 -285.24 424.926 -283.835 425.212 -281.712C425.499 -279.574 425.5 -276.785 425.5 -273V387C425.5 390.785 425.499 393.574 425.212 395.712C424.926 397.835 424.366 399.24 423.303 400.303C422.24 401.367 420.835 401.926 418.712 402.212C416.574 402.499 413.785 402.5 410 402.5H-8.00001C-11.7854 402.5 -14.5741 402.499 -16.7116 402.212C-18.8346 401.926 -20.2401 401.367 -21.3033 400.303C-22.3665 399.24 -22.9261 397.835 -23.2116 395.712C-23.4989 393.574 -23.5 390.785 -23.5 387V-273Z" fill="white" stroke="#E7F0FD"/>
<g id="Frame 729477">
<g id="Frame 729475">
<g id="Frame 729473">
<g id="lucide:view">
<g id="Group">
<path id="Vector" d="M4.16602 9.99992C4.16602 9.99992 6.28685 5.83325 9.99935 5.83325C13.711 5.83325 15.8327 9.99992 15.8327 9.99992C15.8327 9.99992 13.711 14.1666 9.99935 14.1666C6.28685 14.1666 4.16602 9.99992 4.16602 9.99992Z" stroke="black" stroke-width="2" stroke-linecap="round" stroke-linejoin="round"/>
<path id="Vector_2" d="M17.5 14.1667V15.8333C17.5 16.2754 17.3244 16.6993 17.0118 17.0118C16.6993 17.3244 16.2754 17.5 15.8333 17.5H4.16667C3.72464 17.5 3.30072 17.3244 2.98816 17.0118C2.67559 16.6993 2.5 16.2754 2.5 15.8333V14.1667M17.5 5.83333V4.16667C17.5 3.72464 17.3244 3.30072 17.0118 2.98816C16.6993 2.67559 16.2754 2.5 15.8333 2.5H4.16667C3.72464 2.5 3.30072 2.67559 2.98816 2.98816C2.67559 3.30072 2.5 3.72464 2.5 4.16667V5.83333M10 10.8333C10.221 10.8333 10.433 10.7455 10.5893 10.5893C10.7455 10.433 10.8333 10.221 10.8333 10C10.8333 9.77899 10.7455 9.56702 10.5893 9.41074C10.433 9.25446 10.221 9.16667 10 9.16667C9.77899 9.16667 9.56702 9.25446 9.41074 9.41074C9.25446 9.56702 9.16667 9.77899 9.16667 10C9.16667 10.221 9.25446 10.433 9.41074 10.5893C9.56702 10.7455 9.77899 10.8333 10 10.8333Z" stroke="black" stroke-width="2" stroke-linecap="round" stroke-linejoin="round"/>
</g>
</g>
</g>
</g>
</g>
</g>
</g>
</svg>
