<svg width="19" height="16" viewBox="0 0 19 16" fill="none" xmlns="http://www.w3.org/2000/svg">
<rect width="19" height="16" fill="#F5F5F5"/>
<g id="Card 1">
<g id="Group 869">
<path id="Rectangle 58" d="M-23.5 -316C-23.5 -319.785 -23.4989 -322.574 -23.2116 -324.712C-22.9261 -326.835 -22.3665 -328.24 -21.3033 -329.303C-20.2401 -330.366 -18.8346 -330.926 -16.7116 -331.212C-14.5741 -331.499 -11.7854 -331.5 -8 -331.5H410C413.785 -331.5 416.574 -331.499 418.712 -331.212C420.835 -330.926 422.24 -330.366 423.303 -329.303C424.366 -328.24 424.926 -326.835 425.212 -324.712C425.499 -322.574 425.5 -319.785 425.5 -316V344C425.5 347.785 425.499 350.574 425.212 352.712C424.926 354.835 424.366 356.24 423.303 357.303C422.24 358.367 420.835 358.926 418.712 359.212C416.574 359.499 413.785 359.5 410 359.5H-8.00001C-11.7854 359.5 -14.5741 359.499 -16.7116 359.212C-18.8346 358.926 -20.2401 358.367 -21.3033 357.303C-22.3665 356.24 -22.9261 354.835 -23.2116 352.712C-23.4989 350.574 -23.5 347.785 -23.5 344V-316Z" fill="white" stroke="#E7F0FD"/>
<g id="Frame 729477">
<g id="Frame 729475">
<g id="Frame 729474">
<g id="mdi:home-theatre" clip-path="url(#clip0_1225_1475)">
<g id="Vector">
<path d="M1.83963 10.7199V12.4639H3.12526V10.7199H7.41068V12.4639H8.69631V8.97593H1.83963V10.7199ZM8.26777 6.06929H9.5534V7.81327H8.26777V6.06929ZM0.982544 6.06929H2.26817V7.81327H0.982544V6.06929ZM7.41068 7.81327H3.12526V3.16265C3.12526 2.8543 3.21556 2.55857 3.37629 2.34053C3.53703 2.12249 3.75503 2 3.98234 2H6.5536C6.78091 2 6.99891 2.12249 7.15965 2.34053C7.32038 2.55857 7.41068 2.8543 7.41068 3.16265V7.81327Z" fill="black"/>
<path d="M11.525 10.7199V12.4639H12.8107V10.7199H17.0961V12.4639H18.3817V8.97593H11.525V10.7199ZM17.9532 6.06929H19.2388V7.81327H17.9532V6.06929ZM10.6679 6.06929H11.9536V7.81327H10.6679V6.06929ZM17.0961 7.81327H12.8107V3.16265C12.8107 2.8543 12.901 2.55857 13.0617 2.34053C13.2224 2.12249 13.4404 2 13.6677 2H16.239C16.4663 2 16.6843 2.12249 16.845 2.34053C17.0058 2.55857 17.0961 2.8543 17.0961 3.16265V7.81327Z" fill="black"/>
</g>
</g>
</g>
</g>
</g>
</g>
</g>
<defs>
<clipPath id="clip0_1225_1475">
<rect width="19" height="16" fill="white"/>
</clipPath>
</defs>
</svg>
