<svg width="22" height="22" viewBox="0 0 22 22" fill="none" xmlns="http://www.w3.org/2000/svg">
<rect width="22" height="22" fill="#F5F5F5"/>
<g id="Card 1">
<g id="Group 869">
<path id="Rectangle 58" d="M-23.5 -355C-23.5 -358.785 -23.4989 -361.574 -23.2116 -363.712C-22.9261 -365.835 -22.3665 -367.24 -21.3033 -368.303C-20.2401 -369.366 -18.8346 -369.926 -16.7116 -370.212C-14.5741 -370.499 -11.7854 -370.5 -8 -370.5H410C413.785 -370.5 416.574 -370.499 418.712 -370.212C420.835 -369.926 422.24 -369.366 423.303 -368.303C424.366 -367.24 424.926 -365.835 425.212 -363.712C425.499 -361.574 425.5 -358.785 425.5 -355V305C425.5 308.785 425.499 311.574 425.212 313.712C424.926 315.835 424.366 317.24 423.303 318.303C422.24 319.367 420.835 319.926 418.712 320.212C416.574 320.499 413.785 320.5 410 320.5H-8.00001C-11.7854 320.5 -14.5741 320.499 -16.7116 320.212C-18.8346 319.926 -20.2401 319.367 -21.3033 318.303C-22.3665 317.24 -22.9261 315.835 -23.2116 313.712C-23.4989 311.574 -23.5 308.785 -23.5 305V-355Z" fill="white" stroke="#E7F0FD"/>
<g id="Frame 729477">
<g id="Frame 729475">
<g id="Frame 729475_2">
<g id="material-symbols:star">
<path id="Vector" d="M5.33956 20.1667L6.82915 13.7271L1.83331 9.39583L8.43331 8.82292L11 2.75L13.5666 8.82292L20.1666 9.39583L15.1708 13.7271L16.6604 20.1667L11 16.7521L5.33956 20.1667Z" fill="black"/>
</g>
</g>
</g>
</g>
</g>
</g>
</svg>
