<svg width="24" height="24" viewBox="0 0 24 24" fill="none" xmlns="http://www.w3.org/2000/svg">
<rect width="24" height="24" fill="#F5F5F5"/>
<g id="Card 1">
<g id="Group 869">
<path id="Rectangle 58" d="M-196.5 -273C-196.5 -276.785 -196.499 -279.574 -196.212 -281.712C-195.926 -283.835 -195.366 -285.24 -194.303 -286.303C-193.24 -287.366 -191.835 -287.926 -189.712 -288.212C-187.574 -288.499 -184.785 -288.5 -181 -288.5H237C240.785 -288.5 243.574 -288.499 245.712 -288.212C247.835 -287.926 249.24 -287.366 250.303 -286.303C251.366 -285.24 251.926 -283.835 252.212 -281.712C252.499 -279.574 252.5 -276.785 252.5 -273V387C252.5 390.785 252.499 393.574 252.212 395.712C251.926 397.835 251.366 399.24 250.303 400.303C249.24 401.367 247.835 401.926 245.712 402.212C243.574 402.499 240.785 402.5 237 402.5H-181C-184.785 402.5 -187.574 402.499 -189.712 402.212C-191.835 401.926 -193.24 401.367 -194.303 400.303C-195.366 399.24 -195.926 397.835 -196.212 395.712C-196.499 393.574 -196.5 390.785 -196.5 387V-273Z" fill="white" stroke="#E7F0FD"/>
<g id="Frame 729477">
<g id="Frame 729476">
<g id="Frame 729472">
<g id="icon-park-twotone:success">
<g id="Mask group">
<mask id="mask0_1225_1475" style="mask-type:luminance" maskUnits="userSpaceOnUse" x="1" y="1" width="22" height="22">
<g id="Group">
<g id="Group_2">
<path id="Vector" d="M12.0007 2L14.6272 3.916L17.8787 3.91L18.8772 7.004L21.5112 8.91L20.5007 12L21.5112 15.09L18.8772 16.996L17.8787 20.09L14.6272 20.084L12.0007 22L9.37423 20.084L6.12273 20.09L5.12423 16.996L2.49023 15.09L3.50073 12L2.49023 8.91L5.12423 7.004L6.12273 3.91L9.37423 3.916L12.0007 2Z" fill="#555555" stroke="white" stroke-width="2" stroke-linecap="round" stroke-linejoin="round"/>
<path id="Vector_2" d="M8.5 12L11 14.5L16 9.5" stroke="white" stroke-width="2" stroke-linecap="round" stroke-linejoin="round"/>
</g>
</g>
</mask>
<g mask="url(#mask0_1225_1475)">
<path id="Vector_3" d="M0 0H24V24H0V0Z" fill="#1FAF38"/>
</g>
</g>
</g>
</g>
</g>
</g>
</g>
</g>
</svg>
