<svg width="20" height="20" viewBox="0 0 20 20" fill="none" xmlns="http://www.w3.org/2000/svg">
<g clip-path="url(#clip0_235_7926)">
<path d="M17.9167 3.33325H16.1111V4.44436H17.7778V16.6666H2.22222V4.44436H3.88888V3.33325H2.08333C1.95346 3.33542 1.82529 3.36316 1.70614 3.41487C1.58699 3.46658 1.4792 3.54126 1.38892 3.63464C1.29863 3.72801 1.22763 3.83826 1.17996 3.95909C1.1323 4.07991 1.1089 4.20894 1.1111 4.33881V16.7721C1.1089 16.902 1.1323 17.031 1.17996 17.1519C1.22763 17.2727 1.29863 17.3829 1.38892 17.4763C1.4792 17.5697 1.58699 17.6444 1.70614 17.6961C1.82529 17.7478 1.95346 17.7755 2.08333 17.7777H17.9167C18.0465 17.7755 18.1747 17.7478 18.2938 17.6961C18.413 17.6444 18.5208 17.5697 18.6111 17.4763C18.7014 17.3829 18.7724 17.2727 18.82 17.1519C18.8677 17.031 18.8911 16.902 18.8889 16.7721V4.33881C18.8911 4.20894 18.8677 4.07991 18.82 3.95909C18.7724 3.83826 18.7014 3.72801 18.6111 3.63464C18.5208 3.54126 18.413 3.46658 18.2938 3.41487C18.1747 3.36316 18.0465 3.33542 17.9167 3.33325Z" fill="#388E3C"/>
<path d="M4.44446 7.77783H5.55557V8.88894H4.44446V7.77783Z" fill="#388E3C"/>
<path d="M7.77777 7.77783H8.88888V8.88894H7.77777V7.77783Z" fill="#388E3C"/>
<path d="M11.1111 7.77783H12.2222V8.88894H11.1111V7.77783Z" fill="#388E3C"/>
<path d="M14.4445 7.77783H15.5556V8.88894H14.4445V7.77783Z" fill="#388E3C"/>
<path d="M4.44446 10.5557H5.55557V11.6668H4.44446V10.5557Z" fill="#388E3C"/>
<path d="M7.77777 10.5557H8.88888V11.6668H7.77777V10.5557Z" fill="#388E3C"/>
<path d="M11.1111 10.5557H12.2222V11.6668H11.1111V10.5557Z" fill="#388E3C"/>
<path d="M14.4445 10.5557H15.5556V11.6668H14.4445V10.5557Z" fill="#388E3C"/>
<path d="M4.44446 13.3333H5.55557V14.4444H4.44446V13.3333Z" fill="#388E3C"/>
<path d="M7.77777 13.3333H8.88888V14.4444H7.77777V13.3333Z" fill="#388E3C"/>
<path d="M11.1111 13.3333H12.2222V14.4444H11.1111V13.3333Z" fill="#388E3C"/>
<path d="M14.4445 13.3333H15.5556V14.4444H14.4445V13.3333Z" fill="#388E3C"/>
<path d="M5.55556 5.55553C5.7029 5.55553 5.84421 5.497 5.94839 5.39281C6.05258 5.28862 6.11111 5.14732 6.11111 4.99997V1.66664C6.11111 1.5193 6.05258 1.37799 5.94839 1.2738C5.84421 1.16962 5.7029 1.11108 5.55556 1.11108C5.40821 1.11108 5.26691 1.16962 5.16272 1.2738C5.05853 1.37799 5 1.5193 5 1.66664V4.99997C5 5.14732 5.05853 5.28862 5.16272 5.39281C5.26691 5.497 5.40821 5.55553 5.55556 5.55553Z" fill="#388E3C"/>
<path d="M14.4444 5.55553C14.5918 5.55553 14.7331 5.497 14.8373 5.39281C14.9415 5.28862 15 5.14732 15 4.99997V1.66664C15 1.5193 14.9415 1.37799 14.8373 1.2738C14.7331 1.16962 14.5918 1.11108 14.4444 1.11108C14.2971 1.11108 14.1558 1.16962 14.0516 1.2738C13.9474 1.37799 13.8889 1.5193 13.8889 1.66664V4.99997C13.8889 5.14732 13.9474 5.28862 14.0516 5.39281C14.1558 5.497 14.2971 5.55553 14.4444 5.55553Z" fill="#388E3C"/>
<path d="M7.22223 3.33325H12.7778V4.44436H7.22223V3.33325Z" fill="#388E3C"/>
</g>
<defs>
<clipPath id="clip0_235_7926">
<rect width="20" height="20" fill="white"/>
</clipPath>
</defs>
</svg>
