<svg width="26" height="26" viewBox="0 0 26 26" fill="none" xmlns="http://www.w3.org/2000/svg">
<g clip-path="url(#clip0_235_7854)">
<path d="M18.4166 3.6183C20.0635 4.56913 21.4311 5.93672 22.3819 7.5836C23.3327 9.23049 23.8333 11.0986 23.8333 13.0003C23.8333 14.902 23.3327 16.7701 22.3818 18.417C21.431 20.0639 20.0634 21.4314 18.4165 22.3823C16.7696 23.3331 14.9014 23.8336 12.9998 23.8336C11.0981 23.8335 9.22998 23.3329 7.58311 22.3821C5.93625 21.4312 4.56869 20.0636 3.6179 18.4167C2.6671 16.7698 2.16658 14.9016 2.16663 13L2.17204 12.649C2.23271 10.778 2.77714 8.95476 3.75224 7.35687C4.72733 5.75899 6.09983 4.44104 7.73593 3.5315C9.37202 2.62197 11.2159 2.15189 13.0877 2.16711C14.9596 2.18232 16.7955 2.6823 18.4166 3.6183ZM13 6.49997C10.777 6.49997 8.91796 8.06972 8.07188 10.2916H7.58329C7.30717 10.2919 7.04159 10.3977 6.84081 10.5872C6.64003 10.7768 6.51921 11.0358 6.50302 11.3115C6.48684 11.5871 6.57652 11.8585 6.75375 12.0703C6.93097 12.282 7.18236 12.4181 7.45654 12.4507L7.60171 12.4583C7.57694 12.819 7.57694 13.1809 7.60171 13.5416H7.58329C7.29597 13.5416 7.02043 13.6558 6.81726 13.8589C6.6141 14.0621 6.49996 14.3376 6.49996 14.625C6.49996 14.9123 6.6141 15.1878 6.81726 15.391C7.02043 15.5942 7.29597 15.7083 7.58329 15.7083H8.07296C8.91796 17.9324 10.777 19.5 13 19.5C14.236 19.5 15.4017 19.0049 16.341 18.1241C16.5507 17.9276 16.6738 17.6558 16.6831 17.3685C16.6925 17.0813 16.5873 16.802 16.3908 16.5923C16.1943 16.3826 15.9225 16.2595 15.6352 16.2501C15.3479 16.2408 15.0687 16.3459 14.859 16.5425C14.3075 17.0603 13.6651 17.3333 13 17.3333C12.0011 17.3333 11.076 16.7071 10.4704 15.7094L11.9166 15.7083C12.2039 15.7083 12.4795 15.5942 12.6827 15.391C12.8858 15.1878 13 14.9123 13 14.625C13 14.3376 12.8858 14.0621 12.6827 13.8589C12.4795 13.6558 12.2039 13.5416 11.9166 13.5416H9.77488C9.741 13.1813 9.741 12.8186 9.77488 12.4583H11.9166C12.2039 12.4583 12.4795 12.3442 12.6827 12.141C12.8858 11.9378 13 11.6623 13 11.375C13 11.0876 12.8858 10.8121 12.6827 10.6089C12.4795 10.4058 12.2039 10.2916 11.9166 10.2916H10.4693C11.076 9.29388 12.0011 8.66663 13 8.66663C13.6662 8.66663 14.3086 8.93963 14.86 9.45746C15.0698 9.65399 15.349 9.75915 15.6363 9.7498C15.9236 9.74046 16.1954 9.61737 16.3919 9.40763C16.5884 9.19789 16.6936 8.91867 16.6842 8.63139C16.6749 8.34412 16.5518 8.07232 16.342 7.8758C15.4028 6.99613 14.2371 6.49997 13 6.49997Z" fill="#181CDB"/>
</g>
<defs>
<clipPath id="clip0_235_7854">
<rect width="26" height="26" fill="white"/>
</clipPath>
</defs>
</svg>
