<svg width="34" height="34" viewBox="0 0 34 34" fill="none" xmlns="http://www.w3.org/2000/svg">
<path d="M2.36108 8.02783H31.6389V25.9723H2.36108V8.02783Z" fill="white"/>
<path d="M2.36108 8.02783H31.6389V10.3889H2.36108V8.02783ZM2.36108 12.2778H31.6389V14.1667H2.36108V12.2778ZM2.36108 16.0556H31.6389V17.9445H2.36108V16.0556Z" fill="#D22F27"/>
<path d="M2.36108 8.02783H17.4722V17.9445H2.36108V8.02783Z" fill="#1E50A0"/>
<path d="M2.36108 19.8333H31.6389V21.7221H2.36108V19.8333Z" fill="#D22F27"/>
<path d="M4.48606 11.2153C4.94246 11.2153 5.31245 10.8453 5.31245 10.3889C5.31245 9.93249 4.94246 9.5625 4.48606 9.5625C4.02965 9.5625 3.65967 9.93249 3.65967 10.3889C3.65967 10.8453 4.02965 11.2153 4.48606 11.2153Z" fill="white"/>
<path d="M8.26389 11.2153C8.72029 11.2153 9.09028 10.8453 9.09028 10.3889C9.09028 9.93249 8.72029 9.5625 8.26389 9.5625C7.80749 9.5625 7.4375 9.93249 7.4375 10.3889C7.4375 10.8453 7.80749 11.2153 8.26389 11.2153Z" fill="white"/>
<path d="M12.0417 11.2153C12.4981 11.2153 12.8681 10.8453 12.8681 10.3889C12.8681 9.93249 12.4981 9.5625 12.0417 9.5625C11.5853 9.5625 11.2153 9.93249 11.2153 10.3889C11.2153 10.8453 11.5853 11.2153 12.0417 11.2153Z" fill="white"/>
<path d="M15.8194 11.2153C16.2758 11.2153 16.6458 10.8453 16.6458 10.3889C16.6458 9.93249 16.2758 9.5625 15.8194 9.5625C15.363 9.5625 14.993 9.93249 14.993 10.3889C14.993 10.8453 15.363 11.2153 15.8194 11.2153Z" fill="white"/>
<path d="M13.9305 13.1042C14.3869 13.1042 14.7569 12.7342 14.7569 12.2778C14.7569 11.8214 14.3869 11.4514 13.9305 11.4514C13.4741 11.4514 13.1041 11.8214 13.1041 12.2778C13.1041 12.7342 13.4741 13.1042 13.9305 13.1042Z" fill="white"/>
<path d="M10.1528 13.1042C10.6092 13.1042 10.9792 12.7342 10.9792 12.2778C10.9792 11.8214 10.6092 11.4514 10.1528 11.4514C9.6964 11.4514 9.32642 11.8214 9.32642 12.2778C9.32642 12.7342 9.6964 13.1042 10.1528 13.1042Z" fill="white"/>
<path d="M6.37497 13.1042C6.83138 13.1042 7.20136 12.7342 7.20136 12.2778C7.20136 11.8214 6.83138 11.4514 6.37497 11.4514C5.91857 11.4514 5.54858 11.8214 5.54858 12.2778C5.54858 12.7342 5.91857 13.1042 6.37497 13.1042Z" fill="white"/>
<path d="M4.48606 14.9931C4.94246 14.9931 5.31245 14.6231 5.31245 14.1667C5.31245 13.7103 4.94246 13.3403 4.48606 13.3403C4.02965 13.3403 3.65967 13.7103 3.65967 14.1667C3.65967 14.6231 4.02965 14.9931 4.48606 14.9931Z" fill="white"/>
<path d="M8.26389 14.9931C8.72029 14.9931 9.09028 14.6231 9.09028 14.1667C9.09028 13.7103 8.72029 13.3403 8.26389 13.3403C7.80749 13.3403 7.4375 13.7103 7.4375 14.1667C7.4375 14.6231 7.80749 14.9931 8.26389 14.9931Z" fill="white"/>
<path d="M12.0417 14.9931C12.4981 14.9931 12.8681 14.6231 12.8681 14.1667C12.8681 13.7103 12.4981 13.3403 12.0417 13.3403C11.5853 13.3403 11.2153 13.7103 11.2153 14.1667C11.2153 14.6231 11.5853 14.9931 12.0417 14.9931Z" fill="white"/>
<path d="M15.8194 14.9931C16.2758 14.9931 16.6458 14.6231 16.6458 14.1667C16.6458 13.7103 16.2758 13.3403 15.8194 13.3403C15.363 13.3403 14.993 13.7103 14.993 14.1667C14.993 14.6231 15.363 14.9931 15.8194 14.9931Z" fill="white"/>
<path d="M13.9305 16.882C14.3869 16.882 14.7569 16.512 14.7569 16.0556C14.7569 15.5992 14.3869 15.2292 13.9305 15.2292C13.4741 15.2292 13.1041 15.5992 13.1041 16.0556C13.1041 16.512 13.4741 16.882 13.9305 16.882Z" fill="white"/>
<path d="M10.1528 16.882C10.6092 16.882 10.9792 16.512 10.9792 16.0556C10.9792 15.5992 10.6092 15.2292 10.1528 15.2292C9.6964 15.2292 9.32642 15.5992 9.32642 16.0556C9.32642 16.512 9.6964 16.882 10.1528 16.882Z" fill="white"/>
<path d="M6.37497 16.882C6.83138 16.882 7.20136 16.512 7.20136 16.0556C7.20136 15.5992 6.83138 15.2292 6.37497 15.2292C5.91857 15.2292 5.54858 15.5992 5.54858 16.0556C5.54858 16.512 5.91857 16.882 6.37497 16.882Z" fill="white"/>
<path d="M2.36108 23.6111H31.6389V25.9722H2.36108V23.6111Z" fill="#D22F27"/>
<path d="M2.36108 8.02783H31.6389V25.9723H2.36108V8.02783Z" stroke="white" stroke-width="2" stroke-linecap="round" stroke-linejoin="round"/>
</svg>
