<svg width="22" height="24" viewBox="0 0 22 24" fill="none" xmlns="http://www.w3.org/2000/svg">
<g clip-path="url(#clip0_235_7843)">
<path d="M0.469497 11.8673C0.468981 13.7302 0.955732 15.5491 1.88128 17.1524L0.380981 22.6302L5.98686 21.1603C7.53737 22.0044 9.2746 22.4467 11.04 22.4468H11.0446C16.8725 22.4468 21.6165 17.7045 21.619 11.8756C21.6201 9.05112 20.5211 6.39513 18.5245 4.39691C16.5281 2.39887 13.8731 1.29792 11.0442 1.29663C5.21566 1.29663 0.471989 6.03866 0.469583 11.8673" fill="url(#paint0_linear_235_7843)"/>
<path d="M0.0919531 11.8639C0.0913516 13.7938 0.595547 15.6778 1.55409 17.3384L0 23.0126L5.80688 21.4901C7.40687 22.3624 9.20829 22.8224 11.0413 22.8231H11.0461C17.083 22.8231 21.9974 17.9102 22 11.8726C22.001 8.94664 20.8625 6.19518 18.7945 4.12538C16.7263 2.05583 13.9763 0.915266 11.0461 0.914062C5.00809 0.914062 0.0943594 5.82625 0.0919531 11.8639ZM3.55008 17.0524L3.33326 16.7083C2.4218 15.259 1.94073 13.5843 1.94141 11.8646C1.94339 6.84624 6.02748 2.76344 11.0495 2.76344C13.4815 2.76447 15.7671 3.71253 17.4862 5.43266C19.2052 7.15295 20.1511 9.43975 20.1505 11.872C20.1483 16.8903 16.0641 20.9736 11.0461 20.9736H11.0425C9.40852 20.9727 7.80605 20.5339 6.40853 19.7047L6.07595 19.5075L2.63003 20.411L3.55008 17.0524V17.0524Z" fill="url(#paint1_linear_235_7843)"/>
<path d="M8.3083 7.28617C8.10326 6.83044 7.88747 6.82124 7.69248 6.81325C7.5328 6.80638 7.35027 6.80689 7.16791 6.80689C6.98538 6.80689 6.68881 6.87556 6.43813 7.14927C6.1872 7.42324 5.4801 8.0853 5.4801 9.43185C5.4801 10.7785 6.46091 12.0798 6.59763 12.2626C6.73453 12.4451 8.49109 15.2968 11.2731 16.3939C13.5851 17.3056 14.0556 17.1243 14.5574 17.0786C15.0593 17.033 16.1768 16.4167 16.4048 15.7776C16.633 15.1385 16.633 14.5908 16.5646 14.4763C16.4962 14.3623 16.3136 14.2938 16.0399 14.157C15.7661 14.0201 14.4205 13.3579 14.1697 13.2666C13.9187 13.1753 13.7363 13.1297 13.5538 13.4038C13.3712 13.6774 12.8471 14.2938 12.6873 14.4763C12.5277 14.6593 12.368 14.682 12.0944 14.5451C11.8205 14.4078 10.939 14.1191 9.89325 13.1868C9.07959 12.4613 8.53028 11.5654 8.37061 11.2914C8.21094 11.0177 8.35351 10.8694 8.49075 10.733C8.61373 10.6104 8.76455 10.4134 8.90153 10.2537C9.038 10.0938 9.08355 9.97979 9.17481 9.79726C9.26616 9.61456 9.22044 9.45471 9.15212 9.31782C9.08355 9.18092 8.55168 7.82732 8.3083 7.28617Z" fill="white"/>
</g>
<defs>
<linearGradient id="paint0_linear_235_7843" x1="1062.28" y1="2134.65" x2="1062.28" y2="1.29663" gradientUnits="userSpaceOnUse">
<stop stop-color="#1FAF38"/>
<stop offset="1" stop-color="#60D669"/>
</linearGradient>
<linearGradient id="paint1_linear_235_7843" x1="1100" y1="2210.77" x2="1100" y2="0.914062" gradientUnits="userSpaceOnUse">
<stop stop-color="#F9F9F9"/>
<stop offset="1" stop-color="white"/>
</linearGradient>
<clipPath id="clip0_235_7843">
<rect width="22" height="22.1719" fill="white" transform="translate(0 0.914062)"/>
</clipPath>
</defs>
</svg>
